# xmcd
#
# Track frame offsets: 
#        150
#        19960
#        39525
#        63240
#        80065
#        136737
#        165952
#        188887
#        206987
#        237887
#
# Disc length: 3427 seconds
#
# Revision: 5
# Processed by: cddbd v1.5.2PL0 Copyright (c) Steve Scherf et al.
# Submitted via: ExactAudioCopy v0.95b4
#
DISCID=830d610a
DTITLE=Little Charlie and The Nightcats - Captured Live
DYEAR=1991
DGENRE=Blues
TTITLE0=Tomorrow Night
TTITLE1=Run Me Down
TTITLE2=Rain
TTITLE3=Dump That Chump
TTITLE4=Ten Years Ago
TTITLE5=Thinking With The Wrong Head
TTITLE6=Wildcattin'
TTITLE7=Crawling Kingsnake
TTITLE8=Smart Like Einstein
TTITLE9=Eyes Like A Cat
EXTD=YEAR: 1991
EXTT0=
EXTT1=
EXTT2=
EXTT3=
EXTT4=
EXTT5=
EXTT6=
EXTT7=
EXTT8=
EXTT9=
PLAYORDER=
